<svg height='100px' width='100px'  fill="#000000" xmlns="http://www.w3.org/2000/svg" viewBox="0 0 64 64" x="0px" y="0px"><title>Tire-Wheel</title><g><path d="M19,20H5a3,3,0,0,0-3,3V59a3,3,0,0,0,3,3H19a3,3,0,0,0,3-3V23A3,3,0,0,0,19,20Zm1,23.42-5,2.857v-2.7l5-2.857Zm0-5-5,2.857v-2.7l5-2.857Zm0-5-5,2.857v-2.7l5-2.857ZM15,48.58l5-2.857v2.7l-5,2.857Zm5-20.16-5,2.857v-2.7l5-2.857ZM15,53.58l5-2.857v2.7l-5,2.857ZM20,23v.42l-5,2.857V22h4A1,1,0,0,1,20,23ZM9,41.277,4,38.42v-2.7L9,38.58Zm-5-.554L9,43.58v2.7L4,43.42Zm5-4.446L4,33.42v-2.7L9,33.58ZM4,45.723,9,48.58v2.7L4,48.42ZM9,31.277,4,28.42v-2.7L9,28.58ZM4,50.723,9,53.58v2.7L4,53.42ZM5,22H9v4.277L4,23.42V23A1,1,0,0,1,5,22ZM4,59V55.723L9,58.58V60H5A1,1,0,0,1,4,59Zm7,1V22h2V60Zm8,0H15V58.58l5-2.857V59A1,1,0,0,1,19,60Z"></path><path d="M55.82,45a11.19,11.19,0,0,0,0-4h0l0-.01a12.012,12.012,0,0,0-9.8-9.806c-.007,0-.013,0-.02,0h0a11.168,11.168,0,0,0-3.994,0h0c-.007,0-.013,0-.02,0a12.012,12.012,0,0,0-9.8,9.806l0,.01h0a11.19,11.19,0,0,0,0,4h0l0,.01a12.012,12.012,0,0,0,9.8,9.806c.007,0,.013,0,.02,0h0a11.168,11.168,0,0,0,3.994,0h0c.007,0,.013,0,.02,0a12.012,12.012,0,0,0,9.8-9.806l0-.01Zm-2.281-5h-2.3l1.617-1.617A9.93,9.93,0,0,1,53.539,40ZM47,33.461a9.93,9.93,0,0,1,1.617.678L47,35.756Zm-6,0v2.3l-1.617-1.617A9.93,9.93,0,0,1,41,33.461Zm-5.861,4.922L36.756,40h-2.3A9.93,9.93,0,0,1,35.139,38.383ZM34.461,46h2.3l-1.617,1.617A9.93,9.93,0,0,1,34.461,46ZM41,52.539a9.93,9.93,0,0,1-1.617-.678L41,50.244Zm2,.41V47.83a1,1,0,0,0-1.707-.707l-3.616,3.616a10.08,10.08,0,0,1-1.416-1.416l3.616-3.616A1,1,0,0,0,39.17,44H34.051a9.829,9.829,0,0,1,0-2H39.17a1,1,0,0,0,.707-1.707l-3.616-3.616a10.08,10.08,0,0,1,1.416-1.416l3.616,3.616A1,1,0,0,0,42,39.17a.987.987,0,0,0,.383-.076A1,1,0,0,0,43,38.17V33.051a9.829,9.829,0,0,1,2,0V38.17a1,1,0,0,0,.617.924A.987.987,0,0,0,46,39.17a1,1,0,0,0,.707-.293l3.616-3.616a10.08,10.08,0,0,1,1.416,1.416l-3.616,3.616A1,1,0,0,0,48.83,42h5.119a9.829,9.829,0,0,1,0,2H48.83a1,1,0,0,0-.707,1.707l3.616,3.616a10.08,10.08,0,0,1-1.416,1.416l-3.616-3.616A1,1,0,0,0,45,47.83v5.119a9.829,9.829,0,0,1-2,0Zm9.861-5.332L51.244,46h2.3A9.93,9.93,0,0,1,52.861,47.617Zm-4.244,4.244A9.93,9.93,0,0,1,47,52.539v-2.3Z"></path><path d="M47,43a3,3,0,1,0-3,3A3,3,0,0,0,47,43Zm-4,0a1,1,0,1,1,1,1A1,1,0,0,1,43,43Z"></path><path d="M59.619,51.91a17.862,17.862,0,0,0,0-17.82c-.013-.03-.014-.061-.03-.09a.837.837,0,0,0-.079-.089,18.1,18.1,0,0,0-6.421-6.421A.964.964,0,0,0,53,27.411c-.029-.016-.06-.017-.09-.03a17.862,17.862,0,0,0-17.82,0c-.03.013-.061.014-.09.03a.964.964,0,0,0-.089.079,18.1,18.1,0,0,0-6.421,6.421.964.964,0,0,0-.079.089c-.016.029-.017.06-.03.09a17.862,17.862,0,0,0,0,17.82c.013.03.014.061.03.09a.977.977,0,0,0,.114.147,18.1,18.1,0,0,0,6.386,6.363.964.964,0,0,0,.089.079,1.012,1.012,0,0,0,.124.051,17.871,17.871,0,0,0,17.752,0A1.012,1.012,0,0,0,53,58.589a.964.964,0,0,0,.089-.079,18.1,18.1,0,0,0,6.386-6.363A.977.977,0,0,0,59.589,52C59.605,51.971,59.606,51.94,59.619,51.91Zm-6.773,4.411-.48-.831a1,1,0,1,0-1.732,1l.475.823A15.872,15.872,0,0,1,45,58.949V58a1,1,0,0,0-2,0v.949a15.872,15.872,0,0,1-6.109-1.636l.475-.823a1,1,0,1,0-1.732-1l-.48.831a16.157,16.157,0,0,1-4.475-4.475l.831-.48a1,1,0,0,0-1-1.732l-.823.475A15.872,15.872,0,0,1,28.051,44H29a1,1,0,0,0,0-2h-.949a15.872,15.872,0,0,1,1.636-6.109l.823.475a.992.992,0,0,0,.5.134,1,1,0,0,0,.5-1.866l-.831-.48a16.157,16.157,0,0,1,4.475-4.475l.48.831a1,1,0,0,0,1.732-1l-.475-.823A15.872,15.872,0,0,1,43,27.051V28a1,1,0,0,0,2,0v-.949a15.872,15.872,0,0,1,6.109,1.636l-.475.823a1,1,0,1,0,1.732,1l.48-.831a16.157,16.157,0,0,1,4.475,4.475l-.831.48a1,1,0,1,0,1,1.732l.823-.475A15.872,15.872,0,0,1,59.949,42H59a1,1,0,0,0,0,2h.949a15.872,15.872,0,0,1-1.636,6.109l-.823-.475a1,1,0,1,0-1,1.732l.831.48A16.157,16.157,0,0,1,52.846,56.321Z"></path></g></svg>